<svg xmlns="http://www.w3.org/2000/svg" xmlns:xlink="http://www.w3.org/1999/xlink" viewBox="0 0 257 83" fill="#fff" fill-rule="evenodd" stroke="#000" stroke-linecap="round" stroke-linejoin="round"><use xlink:href="#A" x=".5" y=".5"/><symbol id="A" overflow="visible"><g stroke="none" fill-rule="nonzero"><path d="M140.11 25.274c0 2.026-1.664 3.834-3.834 3.834-1.664 0-3.11.434-4.34 1.375-1.374.869-2.459 2.098-3.327 3.472-1.736 2.315-2.603 5.063-2.965 6.075v13.744c0 2.098-1.808 3.834-3.978 3.834-2.111-.015-3.819-1.723-3.834-3.834V25.275c0-2.098 1.735-3.762 3.834-3.762 2.17 0 3.978 1.664 3.978 3.762v.506c.434-.506 1.008-1.085 1.519-1.447 2.387-1.591 5.497-2.894 9.114-2.821 2.17 0 3.834 1.664 3.834 3.762zm-2.124 14.25c.073-9.837 7.74-18.083 17.648-18.083 9.404 0 16.848 7.016 17.433 16.781v.362c0 .145 0 .506-.073.651-.224 1.736-1.736 2.894-3.762 2.894h-23.002c.362 1.664 1.157 3.544 2.459 4.775 1.519 1.736 4.412 3.037 6.944 3.254 2.604.217 5.709-.434 7.523-1.808 1.519-1.592 4.485-1.374 5.425-.224.94 1.007 1.663 3.184 0 4.702-3.545 3.254-7.812 4.775-12.948 4.775-9.909-.071-17.576-8.245-17.649-18.082zm7.884-3.544h20.47c-.723-2.894-4.412-7.161-10.706-7.667-6.148.289-9.18 4.702-9.765 7.667zm64.051 17.721a3.94 3.94 0 0 1-3.907 3.907 3.89 3.89 0 0 1-3.834-3.11c-2.743 1.881-6.22 3.11-9.837 3.11-9.765 0-17.577-8.246-17.577-18.011 0-9.91 7.812-18.156 17.577-18.156 3.545 0 7.016 1.157 9.692 3.038V10.88c0-2.098 1.736-3.907 3.978-3.907a3.94 3.94 0 0 1 3.907 3.907v42.822zm-17.577-24.377c-2.604 0-4.991 1.085-6.799 2.965-1.808 1.808-2.894 4.412-2.894 7.306 0 2.743 1.085 5.352 2.894 7.161 1.808 1.881 4.195 2.967 6.799 2.967 2.675 0 4.991-1.085 6.799-2.967 1.808-1.808 2.894-4.413 2.894-7.161 0-2.894-1.085-5.497-2.894-7.306-1.808-1.881-4.123-2.965-6.799-2.965zm31.345-16.926c0 2.17-1.663 3.978-3.907 3.978-2.17 0-3.906-1.808-3.906-3.978v-1.519a3.89 3.89 0 0 1 3.906-3.906c2.243 0 3.907 1.736 3.907 3.907v1.519zm0 13.098v28.211c0 2.17-1.663 3.907-3.907 3.907a3.89 3.89 0 0 1-3.906-3.906V25.496c0-2.315 1.735-3.979 3.906-3.979 2.244 0 3.907 1.664 3.907 3.979zm4.967 21.774c1.302-1.735 3.834-1.952 5.425-.578 1.881 1.592 5.136 3.254 7.957 3.183 1.959 0 3.761-.65 4.919-1.374 1.007-.868 1.301-1.591 1.301-2.17 0-.361-.073-.506-.217-.724-.073-.217-.362-.506-.94-.868-1.007-.724-3.183-1.52-5.787-2.026h-.073c-2.243-.434-4.413-1.008-6.293-1.881-1.959-.94-3.694-2.242-4.991-4.195-.795-1.302-1.229-2.894-1.229-4.556 0-3.328 1.881-6.149 4.267-7.957 2.532-1.735 5.569-2.676 8.898-2.676 4.991 0 8.535 2.387 10.85 3.978 1.736 1.158 2.242 3.545 1.157 5.352-1.157 1.736-3.544 2.243-5.352 1.007-2.315-1.519-4.34-2.677-6.661-2.677-1.808 0-3.4.579-4.34 1.302-.94.651-1.157 1.302-1.157 1.664 0 .289 0 .362.144.578.073.144.289.434.796.723.94.651 2.821 1.302 5.281 1.736l.073.073h.073c2.387.433 4.629 1.085 6.727 2.097 1.959.868 3.907 2.242 5.136 4.267.868 1.446 1.374 3.11 1.374 4.775 0 3.544-1.959 6.51-4.557 8.396-2.604 1.808-5.859 2.894-9.404 2.894-5.642-.073-9.982-2.675-12.875-4.991-1.592-1.302-1.808-3.761-.507-5.353z" fill="#636466"/><path d="M91.488 62.926c-5.081 2.649-31.405 13.472-37.009 16.393s-8.717 2.894-13.144.784S8.895 66.671 3.849 64.259C1.327 63.053.001 62.037.001 61.075v-9.625s36.468-7.945 42.357-10.057 7.93-2.183 12.94-.353 34.969 7.241 39.921 9.054l-.002 9.488c.001.951-1.142 1.995-3.728 3.343z" fill="#a41e11"/><path d="M91.488 53.299c-5.081 2.648-31.405 13.472-37.009 16.393s-8.717 2.894-13.144.784S8.895 57.043 3.849 54.632s-5.152-4.072-.195-6.013l38.703-14.99c5.887-2.111 7.93-2.183 12.94-.353s31.177 12.25 36.128 14.064 5.143 3.31.056 5.958z" fill="#d82c20"/><path d="M91.488 47.231c-5.081 2.649-31.405 13.472-37.009 16.4s-8.717 2.893-13.144.776S8.895 50.976 3.849 48.564C1.327 47.358.001 46.342.001 45.381v-9.626s36.468-7.946 42.357-10.057 7.93-2.183 12.94-.353 34.969 7.24 39.921 9.054l-.002 9.489c.001.952-1.142 1.995-3.728 3.343z" fill="#a41e11"/><path d="M91.488 37.604c-5.081 2.649-31.405 13.472-37.009 16.4s-8.717 2.893-13.144.776S8.895 41.349 3.849 38.937s-5.152-4.072-.195-6.013l38.703-14.989c5.887-2.112 7.93-2.183 12.94-.353s31.177 12.25 36.128 14.064 5.143 3.31.056 5.958z" fill="#d82c20"/><path d="M91.488 30.956c-5.081 2.649-31.405 13.473-37.009 16.4s-8.717 2.893-13.144.776S8.895 34.701 3.849 32.289C1.327 31.084.001 30.067.001 29.107v-9.625s36.468-7.946 42.357-10.057 7.93-2.183 12.94-.353 34.969 7.24 39.921 9.054l-.002 9.489c.001.95-1.142 1.994-3.728 3.342z" fill="#a41e11"/><path d="M91.488 21.328c-5.081 2.649-31.405 13.473-37.009 16.4s-8.717 2.893-13.144.777S8.895 25.074 3.849 22.662s-5.152-4.072-.195-6.013l38.703-14.99c5.887-2.112 7.93-2.183 12.94-.353s31.177 12.25 36.128 14.064 5.143 3.309.056 5.957z" fill="#d82c20"/><path d="M51.836 12.913l-1.848 4.447-2.986-4.959-9.527-.856 7.109-2.565-2.127-3.935 6.654 2.604 6.279-2.054-1.699 4.068 6.398 2.395zm-17.742 14.32l22.065-3.386-6.663 9.773zm-17.74-8.132c0-2.533 5.26-4.571 11.793-4.571s11.793 2.039 11.793 4.571-5.26 4.571-11.793 4.571-11.793-2.039-11.793-4.571z"/><path d="M82.894 18.436l-13.05 5.152-.007-10.316z" fill="#7a0c00"/><path d="M69.838 13.271l.007 10.316-1.413.557-13.042-5.159z" fill="#ad2115"/></g></symbol></svg>